<mxfile host="Electron" agent="Mozilla/5.0 (Windows NT 10.0; Win64; x64) AppleWebKit/537.36 (KHTML, like Gecko) draw.io/26.1.1 Chrome/132.0.6834.210 Electron/34.3.3 Safari/537.36" version="26.1.1">
  <diagram name="第 1 页" id="ph39k5ufPcvVWEnPMKcz">
    <mxGraphModel dx="3053" dy="2058" grid="1" gridSize="10" guides="1" tooltips="1" connect="1" arrows="1" fold="1" page="1" pageScale="1" pageWidth="827" pageHeight="1169" math="0" shadow="0">
      <root>
        <mxCell id="0" />
        <mxCell id="1" parent="0" />
        <mxCell id="IPOVJZ6B6GiX1Tb60mH--1" value="UserController" style="swimlane;fontStyle=1;align=center;verticalAlign=top;childLayout=stackLayout;horizontal=1;startSize=40.57142857142857;horizontalStack=0;resizeParent=1;resizeParentMax=0;resizeLast=0;collapsible=0;marginBottom=0;" vertex="1" parent="1">
          <mxGeometry x="33" y="20" width="154" height="130.57142857142856" as="geometry" />
        </mxCell>
        <mxCell id="IPOVJZ6B6GiX1Tb60mH--2" style="line;strokeWidth=1;fillColor=none;align=left;verticalAlign=middle;spacingTop=-1;spacingLeft=3;spacingRight=3;rotatable=0;labelPosition=right;points=[];portConstraint=eastwest;strokeColor=inherit;" vertex="1" parent="IPOVJZ6B6GiX1Tb60mH--1">
          <mxGeometry y="40.57142857142857" width="154" height="8" as="geometry" />
        </mxCell>
        <mxCell id="IPOVJZ6B6GiX1Tb60mH--3" value="+login()" style="text;strokeColor=none;fillColor=none;align=left;verticalAlign=top;spacingLeft=4;spacingRight=4;overflow=hidden;rotatable=0;points=[[0,0.5],[1,0.5]];portConstraint=eastwest;" vertex="1" parent="IPOVJZ6B6GiX1Tb60mH--1">
          <mxGeometry y="48.57142857142857" width="154" height="41" as="geometry" />
        </mxCell>
        <mxCell id="IPOVJZ6B6GiX1Tb60mH--4" value="+register()" style="text;strokeColor=none;fillColor=none;align=left;verticalAlign=top;spacingLeft=4;spacingRight=4;overflow=hidden;rotatable=0;points=[[0,0.5],[1,0.5]];portConstraint=eastwest;" vertex="1" parent="IPOVJZ6B6GiX1Tb60mH--1">
          <mxGeometry y="89.57142857142857" width="154" height="41" as="geometry" />
        </mxCell>
        <mxCell id="IPOVJZ6B6GiX1Tb60mH--5" value="SensorDataController" style="swimlane;fontStyle=1;align=center;verticalAlign=top;childLayout=stackLayout;horizontal=1;startSize=40.57142857142857;horizontalStack=0;resizeParent=1;resizeParentMax=0;resizeLast=0;collapsible=0;marginBottom=0;" vertex="1" parent="1">
          <mxGeometry x="253" y="20" width="271" height="130.57142857142856" as="geometry" />
        </mxCell>
        <mxCell id="IPOVJZ6B6GiX1Tb60mH--6" style="line;strokeWidth=1;fillColor=none;align=left;verticalAlign=middle;spacingTop=-1;spacingLeft=3;spacingRight=3;rotatable=0;labelPosition=right;points=[];portConstraint=eastwest;strokeColor=inherit;" vertex="1" parent="IPOVJZ6B6GiX1Tb60mH--5">
          <mxGeometry y="40.57142857142857" width="271" height="8" as="geometry" />
        </mxCell>
        <mxCell id="IPOVJZ6B6GiX1Tb60mH--7" value="+getSensorData()" style="text;strokeColor=none;fillColor=none;align=left;verticalAlign=top;spacingLeft=4;spacingRight=4;overflow=hidden;rotatable=0;points=[[0,0.5],[1,0.5]];portConstraint=eastwest;" vertex="1" parent="IPOVJZ6B6GiX1Tb60mH--5">
          <mxGeometry y="48.57142857142857" width="271" height="41" as="geometry" />
        </mxCell>
        <mxCell id="IPOVJZ6B6GiX1Tb60mH--8" value="+getLatestSensorData()" style="text;strokeColor=none;fillColor=none;align=left;verticalAlign=top;spacingLeft=4;spacingRight=4;overflow=hidden;rotatable=0;points=[[0,0.5],[1,0.5]];portConstraint=eastwest;" vertex="1" parent="IPOVJZ6B6GiX1Tb60mH--5">
          <mxGeometry y="89.57142857142857" width="271" height="41" as="geometry" />
        </mxCell>
        <mxCell id="IPOVJZ6B6GiX1Tb60mH--9" value="SensorController" style="swimlane;fontStyle=1;align=center;verticalAlign=top;childLayout=stackLayout;horizontal=1;startSize=40.57142857142857;horizontalStack=0;resizeParent=1;resizeParentMax=0;resizeLast=0;collapsible=0;marginBottom=0;" vertex="1" parent="1">
          <mxGeometry x="579" y="20" width="221" height="130.57142857142856" as="geometry" />
        </mxCell>
        <mxCell id="IPOVJZ6B6GiX1Tb60mH--10" style="line;strokeWidth=1;fillColor=none;align=left;verticalAlign=middle;spacingTop=-1;spacingLeft=3;spacingRight=3;rotatable=0;labelPosition=right;points=[];portConstraint=eastwest;strokeColor=inherit;" vertex="1" parent="IPOVJZ6B6GiX1Tb60mH--9">
          <mxGeometry y="40.57142857142857" width="221" height="8" as="geometry" />
        </mxCell>
        <mxCell id="IPOVJZ6B6GiX1Tb60mH--11" value="+getSensorById()" style="text;strokeColor=none;fillColor=none;align=left;verticalAlign=top;spacingLeft=4;spacingRight=4;overflow=hidden;rotatable=0;points=[[0,0.5],[1,0.5]];portConstraint=eastwest;" vertex="1" parent="IPOVJZ6B6GiX1Tb60mH--9">
          <mxGeometry y="48.57142857142857" width="221" height="41" as="geometry" />
        </mxCell>
        <mxCell id="IPOVJZ6B6GiX1Tb60mH--12" value="+configureSensor()" style="text;strokeColor=none;fillColor=none;align=left;verticalAlign=top;spacingLeft=4;spacingRight=4;overflow=hidden;rotatable=0;points=[[0,0.5],[1,0.5]];portConstraint=eastwest;" vertex="1" parent="IPOVJZ6B6GiX1Tb60mH--9">
          <mxGeometry y="89.57142857142857" width="221" height="41" as="geometry" />
        </mxCell>
        <mxCell id="IPOVJZ6B6GiX1Tb60mH--13" value="ReportController" style="swimlane;fontStyle=1;align=center;verticalAlign=top;childLayout=stackLayout;horizontal=1;startSize=47.2;horizontalStack=0;resizeParent=1;resizeParentMax=0;resizeLast=0;collapsible=0;marginBottom=0;" vertex="1" parent="1">
          <mxGeometry x="859" y="32" width="219" height="102.2" as="geometry" />
        </mxCell>
        <mxCell id="IPOVJZ6B6GiX1Tb60mH--14" style="line;strokeWidth=1;fillColor=none;align=left;verticalAlign=middle;spacingTop=-1;spacingLeft=3;spacingRight=3;rotatable=0;labelPosition=right;points=[];portConstraint=eastwest;strokeColor=inherit;" vertex="1" parent="IPOVJZ6B6GiX1Tb60mH--13">
          <mxGeometry y="47.2" width="219" height="8" as="geometry" />
        </mxCell>
        <mxCell id="IPOVJZ6B6GiX1Tb60mH--15" value="+generateReport()" style="text;strokeColor=none;fillColor=none;align=left;verticalAlign=top;spacingLeft=4;spacingRight=4;overflow=hidden;rotatable=0;points=[[0,0.5],[1,0.5]];portConstraint=eastwest;" vertex="1" parent="IPOVJZ6B6GiX1Tb60mH--13">
          <mxGeometry y="55.2" width="219" height="47" as="geometry" />
        </mxCell>
        <mxCell id="IPOVJZ6B6GiX1Tb60mH--16" value="AlertController" style="swimlane;fontStyle=1;align=center;verticalAlign=top;childLayout=stackLayout;horizontal=1;startSize=47.2;horizontalStack=0;resizeParent=1;resizeParentMax=0;resizeLast=0;collapsible=0;marginBottom=0;" vertex="1" parent="1">
          <mxGeometry x="129" y="452" width="165" height="102.2" as="geometry" />
        </mxCell>
        <mxCell id="IPOVJZ6B6GiX1Tb60mH--17" style="line;strokeWidth=1;fillColor=none;align=left;verticalAlign=middle;spacingTop=-1;spacingLeft=3;spacingRight=3;rotatable=0;labelPosition=right;points=[];portConstraint=eastwest;strokeColor=inherit;" vertex="1" parent="IPOVJZ6B6GiX1Tb60mH--16">
          <mxGeometry y="47.2" width="165" height="8" as="geometry" />
        </mxCell>
        <mxCell id="IPOVJZ6B6GiX1Tb60mH--18" value="+listAlerts()" style="text;strokeColor=none;fillColor=none;align=left;verticalAlign=top;spacingLeft=4;spacingRight=4;overflow=hidden;rotatable=0;points=[[0,0.5],[1,0.5]];portConstraint=eastwest;" vertex="1" parent="IPOVJZ6B6GiX1Tb60mH--16">
          <mxGeometry y="55.2" width="165" height="47" as="geometry" />
        </mxCell>
        <mxCell id="IPOVJZ6B6GiX1Tb60mH--19" value="MaintenanceScheduleController" style="swimlane;fontStyle=1;align=center;verticalAlign=top;childLayout=stackLayout;horizontal=1;startSize=47.2;horizontalStack=0;resizeParent=1;resizeParentMax=0;resizeLast=0;collapsible=0;marginBottom=0;" vertex="1" parent="1">
          <mxGeometry x="384" y="452" width="274" height="102.2" as="geometry" />
        </mxCell>
        <mxCell id="IPOVJZ6B6GiX1Tb60mH--20" style="line;strokeWidth=1;fillColor=none;align=left;verticalAlign=middle;spacingTop=-1;spacingLeft=3;spacingRight=3;rotatable=0;labelPosition=right;points=[];portConstraint=eastwest;strokeColor=inherit;" vertex="1" parent="IPOVJZ6B6GiX1Tb60mH--19">
          <mxGeometry y="47.2" width="274" height="8" as="geometry" />
        </mxCell>
        <mxCell id="IPOVJZ6B6GiX1Tb60mH--21" value="+createSchedule()" style="text;strokeColor=none;fillColor=none;align=left;verticalAlign=top;spacingLeft=4;spacingRight=4;overflow=hidden;rotatable=0;points=[[0,0.5],[1,0.5]];portConstraint=eastwest;" vertex="1" parent="IPOVJZ6B6GiX1Tb60mH--19">
          <mxGeometry y="55.2" width="274" height="47" as="geometry" />
        </mxCell>
        <mxCell id="IPOVJZ6B6GiX1Tb60mH--22" value="ConfigurationController" style="swimlane;fontStyle=1;align=center;verticalAlign=top;childLayout=stackLayout;horizontal=1;startSize=40.57142857142857;horizontalStack=0;resizeParent=1;resizeParentMax=0;resizeLast=0;collapsible=0;marginBottom=0;" vertex="1" parent="1">
          <mxGeometry x="708" y="440" width="280" height="130.57142857142856" as="geometry" />
        </mxCell>
        <mxCell id="IPOVJZ6B6GiX1Tb60mH--23" style="line;strokeWidth=1;fillColor=none;align=left;verticalAlign=middle;spacingTop=-1;spacingLeft=3;spacingRight=3;rotatable=0;labelPosition=right;points=[];portConstraint=eastwest;strokeColor=inherit;" vertex="1" parent="IPOVJZ6B6GiX1Tb60mH--22">
          <mxGeometry y="40.57142857142857" width="280" height="8" as="geometry" />
        </mxCell>
        <mxCell id="IPOVJZ6B6GiX1Tb60mH--24" value="+getConfiguration()" style="text;strokeColor=none;fillColor=none;align=left;verticalAlign=top;spacingLeft=4;spacingRight=4;overflow=hidden;rotatable=0;points=[[0,0.5],[1,0.5]];portConstraint=eastwest;" vertex="1" parent="IPOVJZ6B6GiX1Tb60mH--22">
          <mxGeometry y="48.57142857142857" width="280" height="41" as="geometry" />
        </mxCell>
        <mxCell id="IPOVJZ6B6GiX1Tb60mH--25" value="+updateConfiguration()" style="text;strokeColor=none;fillColor=none;align=left;verticalAlign=top;spacingLeft=4;spacingRight=4;overflow=hidden;rotatable=0;points=[[0,0.5],[1,0.5]];portConstraint=eastwest;" vertex="1" parent="IPOVJZ6B6GiX1Tb60mH--22">
          <mxGeometry y="89.57142857142857" width="280" height="41" as="geometry" />
        </mxCell>
        <mxCell id="IPOVJZ6B6GiX1Tb60mH--26" value="UserService" style="swimlane;fontStyle=1;align=center;verticalAlign=top;childLayout=stackLayout;horizontal=1;startSize=36.888888888888886;horizontalStack=0;resizeParent=1;resizeParentMax=0;resizeLast=0;collapsible=0;marginBottom=0;" vertex="1" parent="1">
          <mxGeometry x="20" y="243" width="181" height="155.88888888888889" as="geometry" />
        </mxCell>
        <mxCell id="IPOVJZ6B6GiX1Tb60mH--27" style="line;strokeWidth=1;fillColor=none;align=left;verticalAlign=middle;spacingTop=-1;spacingLeft=3;spacingRight=3;rotatable=0;labelPosition=right;points=[];portConstraint=eastwest;strokeColor=inherit;" vertex="1" parent="IPOVJZ6B6GiX1Tb60mH--26">
          <mxGeometry y="36.888888888888886" width="181" height="8" as="geometry" />
        </mxCell>
        <mxCell id="IPOVJZ6B6GiX1Tb60mH--28" value="+authenticate()" style="text;strokeColor=none;fillColor=none;align=left;verticalAlign=top;spacingLeft=4;spacingRight=4;overflow=hidden;rotatable=0;points=[[0,0.5],[1,0.5]];portConstraint=eastwest;" vertex="1" parent="IPOVJZ6B6GiX1Tb60mH--26">
          <mxGeometry y="44.888888888888886" width="181" height="37" as="geometry" />
        </mxCell>
        <mxCell id="IPOVJZ6B6GiX1Tb60mH--29" value="+registerUser()" style="text;strokeColor=none;fillColor=none;align=left;verticalAlign=top;spacingLeft=4;spacingRight=4;overflow=hidden;rotatable=0;points=[[0,0.5],[1,0.5]];portConstraint=eastwest;" vertex="1" parent="IPOVJZ6B6GiX1Tb60mH--26">
          <mxGeometry y="81.88888888888889" width="181" height="37" as="geometry" />
        </mxCell>
        <mxCell id="IPOVJZ6B6GiX1Tb60mH--30" value="+findUserById()" style="text;strokeColor=none;fillColor=none;align=left;verticalAlign=top;spacingLeft=4;spacingRight=4;overflow=hidden;rotatable=0;points=[[0,0.5],[1,0.5]];portConstraint=eastwest;" vertex="1" parent="IPOVJZ6B6GiX1Tb60mH--26">
          <mxGeometry y="118.88888888888889" width="181" height="37" as="geometry" />
        </mxCell>
        <mxCell id="IPOVJZ6B6GiX1Tb60mH--31" value="SensorDataService" style="swimlane;fontStyle=1;align=center;verticalAlign=top;childLayout=stackLayout;horizontal=1;startSize=36.888888888888886;horizontalStack=0;resizeParent=1;resizeParentMax=0;resizeLast=0;collapsible=0;marginBottom=0;" vertex="1" parent="1">
          <mxGeometry x="251" y="243" width="275" height="155.88888888888889" as="geometry" />
        </mxCell>
        <mxCell id="IPOVJZ6B6GiX1Tb60mH--32" style="line;strokeWidth=1;fillColor=none;align=left;verticalAlign=middle;spacingTop=-1;spacingLeft=3;spacingRight=3;rotatable=0;labelPosition=right;points=[];portConstraint=eastwest;strokeColor=inherit;" vertex="1" parent="IPOVJZ6B6GiX1Tb60mH--31">
          <mxGeometry y="36.888888888888886" width="275" height="8" as="geometry" />
        </mxCell>
        <mxCell id="IPOVJZ6B6GiX1Tb60mH--33" value="+collectAndProcessData()" style="text;strokeColor=none;fillColor=none;align=left;verticalAlign=top;spacingLeft=4;spacingRight=4;overflow=hidden;rotatable=0;points=[[0,0.5],[1,0.5]];portConstraint=eastwest;" vertex="1" parent="IPOVJZ6B6GiX1Tb60mH--31">
          <mxGeometry y="44.888888888888886" width="275" height="37" as="geometry" />
        </mxCell>
        <mxCell id="IPOVJZ6B6GiX1Tb60mH--34" value="+checkAndTriggerAlert()" style="text;strokeColor=none;fillColor=none;align=left;verticalAlign=top;spacingLeft=4;spacingRight=4;overflow=hidden;rotatable=0;points=[[0,0.5],[1,0.5]];portConstraint=eastwest;" vertex="1" parent="IPOVJZ6B6GiX1Tb60mH--31">
          <mxGeometry y="81.88888888888889" width="275" height="37" as="geometry" />
        </mxCell>
        <mxCell id="IPOVJZ6B6GiX1Tb60mH--35" value="+getDataForPeriod()" style="text;strokeColor=none;fillColor=none;align=left;verticalAlign=top;spacingLeft=4;spacingRight=4;overflow=hidden;rotatable=0;points=[[0,0.5],[1,0.5]];portConstraint=eastwest;" vertex="1" parent="IPOVJZ6B6GiX1Tb60mH--31">
          <mxGeometry y="118.88888888888889" width="275" height="37" as="geometry" />
        </mxCell>
        <mxCell id="IPOVJZ6B6GiX1Tb60mH--36" value="SensorService" style="swimlane;fontStyle=1;align=center;verticalAlign=top;childLayout=stackLayout;horizontal=1;startSize=40.57142857142857;horizontalStack=0;resizeParent=1;resizeParentMax=0;resizeLast=0;collapsible=0;marginBottom=0;" vertex="1" parent="1">
          <mxGeometry x="570" y="255" width="238" height="130.57142857142856" as="geometry" />
        </mxCell>
        <mxCell id="IPOVJZ6B6GiX1Tb60mH--37" style="line;strokeWidth=1;fillColor=none;align=left;verticalAlign=middle;spacingTop=-1;spacingLeft=3;spacingRight=3;rotatable=0;labelPosition=right;points=[];portConstraint=eastwest;strokeColor=inherit;" vertex="1" parent="IPOVJZ6B6GiX1Tb60mH--36">
          <mxGeometry y="40.57142857142857" width="238" height="8" as="geometry" />
        </mxCell>
        <mxCell id="IPOVJZ6B6GiX1Tb60mH--38" value="+getSensorById()" style="text;strokeColor=none;fillColor=none;align=left;verticalAlign=top;spacingLeft=4;spacingRight=4;overflow=hidden;rotatable=0;points=[[0,0.5],[1,0.5]];portConstraint=eastwest;" vertex="1" parent="IPOVJZ6B6GiX1Tb60mH--36">
          <mxGeometry y="48.57142857142857" width="238" height="41" as="geometry" />
        </mxCell>
        <mxCell id="IPOVJZ6B6GiX1Tb60mH--39" value="+updateSensorConfig()" style="text;strokeColor=none;fillColor=none;align=left;verticalAlign=top;spacingLeft=4;spacingRight=4;overflow=hidden;rotatable=0;points=[[0,0.5],[1,0.5]];portConstraint=eastwest;" vertex="1" parent="IPOVJZ6B6GiX1Tb60mH--36">
          <mxGeometry y="89.57142857142857" width="238" height="41" as="geometry" />
        </mxCell>
        <mxCell id="IPOVJZ6B6GiX1Tb60mH--40" value="ReportService" style="swimlane;fontStyle=1;align=center;verticalAlign=top;childLayout=stackLayout;horizontal=1;startSize=47.2;horizontalStack=0;resizeParent=1;resizeParentMax=0;resizeLast=0;collapsible=0;marginBottom=0;" vertex="1" parent="1">
          <mxGeometry x="864" y="267" width="208" height="102.2" as="geometry" />
        </mxCell>
        <mxCell id="IPOVJZ6B6GiX1Tb60mH--41" style="line;strokeWidth=1;fillColor=none;align=left;verticalAlign=middle;spacingTop=-1;spacingLeft=3;spacingRight=3;rotatable=0;labelPosition=right;points=[];portConstraint=eastwest;strokeColor=inherit;" vertex="1" parent="IPOVJZ6B6GiX1Tb60mH--40">
          <mxGeometry y="47.2" width="208" height="8" as="geometry" />
        </mxCell>
        <mxCell id="IPOVJZ6B6GiX1Tb60mH--42" value="+generateReport()" style="text;strokeColor=none;fillColor=none;align=left;verticalAlign=top;spacingLeft=4;spacingRight=4;overflow=hidden;rotatable=0;points=[[0,0.5],[1,0.5]];portConstraint=eastwest;" vertex="1" parent="IPOVJZ6B6GiX1Tb60mH--40">
          <mxGeometry y="55.2" width="208" height="47" as="geometry" />
        </mxCell>
        <mxCell id="IPOVJZ6B6GiX1Tb60mH--43" value="AlertService" style="swimlane;fontStyle=1;align=center;verticalAlign=top;childLayout=stackLayout;horizontal=1;startSize=40.57142857142857;horizontalStack=0;resizeParent=1;resizeParentMax=0;resizeLast=0;collapsible=0;marginBottom=0;" vertex="1" parent="1">
          <mxGeometry x="90" y="675" width="243" height="130.57142857142856" as="geometry" />
        </mxCell>
        <mxCell id="IPOVJZ6B6GiX1Tb60mH--44" style="line;strokeWidth=1;fillColor=none;align=left;verticalAlign=middle;spacingTop=-1;spacingLeft=3;spacingRight=3;rotatable=0;labelPosition=right;points=[];portConstraint=eastwest;strokeColor=inherit;" vertex="1" parent="IPOVJZ6B6GiX1Tb60mH--43">
          <mxGeometry y="40.57142857142857" width="243" height="8" as="geometry" />
        </mxCell>
        <mxCell id="IPOVJZ6B6GiX1Tb60mH--45" value="+createAlert()" style="text;strokeColor=none;fillColor=none;align=left;verticalAlign=top;spacingLeft=4;spacingRight=4;overflow=hidden;rotatable=0;points=[[0,0.5],[1,0.5]];portConstraint=eastwest;" vertex="1" parent="IPOVJZ6B6GiX1Tb60mH--43">
          <mxGeometry y="48.57142857142857" width="243" height="41" as="geometry" />
        </mxCell>
        <mxCell id="IPOVJZ6B6GiX1Tb60mH--46" value="+sendAlertNotification()" style="text;strokeColor=none;fillColor=none;align=left;verticalAlign=top;spacingLeft=4;spacingRight=4;overflow=hidden;rotatable=0;points=[[0,0.5],[1,0.5]];portConstraint=eastwest;" vertex="1" parent="IPOVJZ6B6GiX1Tb60mH--43">
          <mxGeometry y="89.57142857142857" width="243" height="41" as="geometry" />
        </mxCell>
        <mxCell id="IPOVJZ6B6GiX1Tb60mH--47" value="MaintenanceScheduleService" style="swimlane;fontStyle=1;align=center;verticalAlign=top;childLayout=stackLayout;horizontal=1;startSize=40.57142857142857;horizontalStack=0;resizeParent=1;resizeParentMax=0;resizeLast=0;collapsible=0;marginBottom=0;" vertex="1" parent="1">
          <mxGeometry x="383" y="675" width="276" height="130.57142857142856" as="geometry" />
        </mxCell>
        <mxCell id="IPOVJZ6B6GiX1Tb60mH--48" style="line;strokeWidth=1;fillColor=none;align=left;verticalAlign=middle;spacingTop=-1;spacingLeft=3;spacingRight=3;rotatable=0;labelPosition=right;points=[];portConstraint=eastwest;strokeColor=inherit;" vertex="1" parent="IPOVJZ6B6GiX1Tb60mH--47">
          <mxGeometry y="40.57142857142857" width="276" height="8" as="geometry" />
        </mxCell>
        <mxCell id="IPOVJZ6B6GiX1Tb60mH--49" value="+createSchedule()" style="text;strokeColor=none;fillColor=none;align=left;verticalAlign=top;spacingLeft=4;spacingRight=4;overflow=hidden;rotatable=0;points=[[0,0.5],[1,0.5]];portConstraint=eastwest;" vertex="1" parent="IPOVJZ6B6GiX1Tb60mH--47">
          <mxGeometry y="48.57142857142857" width="276" height="41" as="geometry" />
        </mxCell>
        <mxCell id="IPOVJZ6B6GiX1Tb60mH--50" value="+findScheduleById()" style="text;strokeColor=none;fillColor=none;align=left;verticalAlign=top;spacingLeft=4;spacingRight=4;overflow=hidden;rotatable=0;points=[[0,0.5],[1,0.5]];portConstraint=eastwest;" vertex="1" parent="IPOVJZ6B6GiX1Tb60mH--47">
          <mxGeometry y="89.57142857142857" width="276" height="41" as="geometry" />
        </mxCell>
        <mxCell id="IPOVJZ6B6GiX1Tb60mH--51" value="ConfigurationService" style="swimlane;fontStyle=1;align=center;verticalAlign=top;childLayout=stackLayout;horizontal=1;startSize=36.888888888888886;horizontalStack=0;resizeParent=1;resizeParentMax=0;resizeLast=0;collapsible=0;marginBottom=0;" vertex="1" parent="1">
          <mxGeometry x="715" y="663" width="266" height="155.88888888888889" as="geometry" />
        </mxCell>
        <mxCell id="IPOVJZ6B6GiX1Tb60mH--52" style="line;strokeWidth=1;fillColor=none;align=left;verticalAlign=middle;spacingTop=-1;spacingLeft=3;spacingRight=3;rotatable=0;labelPosition=right;points=[];portConstraint=eastwest;strokeColor=inherit;" vertex="1" parent="IPOVJZ6B6GiX1Tb60mH--51">
          <mxGeometry y="36.888888888888886" width="266" height="8" as="geometry" />
        </mxCell>
        <mxCell id="IPOVJZ6B6GiX1Tb60mH--53" value="+getConfigById()" style="text;strokeColor=none;fillColor=none;align=left;verticalAlign=top;spacingLeft=4;spacingRight=4;overflow=hidden;rotatable=0;points=[[0,0.5],[1,0.5]];portConstraint=eastwest;" vertex="1" parent="IPOVJZ6B6GiX1Tb60mH--51">
          <mxGeometry y="44.888888888888886" width="266" height="37" as="geometry" />
        </mxCell>
        <mxCell id="IPOVJZ6B6GiX1Tb60mH--54" value="+updateConfig()" style="text;strokeColor=none;fillColor=none;align=left;verticalAlign=top;spacingLeft=4;spacingRight=4;overflow=hidden;rotatable=0;points=[[0,0.5],[1,0.5]];portConstraint=eastwest;" vertex="1" parent="IPOVJZ6B6GiX1Tb60mH--51">
          <mxGeometry y="81.88888888888889" width="266" height="37" as="geometry" />
        </mxCell>
        <mxCell id="IPOVJZ6B6GiX1Tb60mH--55" value="+getThresholdSetting()" style="text;strokeColor=none;fillColor=none;align=left;verticalAlign=top;spacingLeft=4;spacingRight=4;overflow=hidden;rotatable=0;points=[[0,0.5],[1,0.5]];portConstraint=eastwest;" vertex="1" parent="IPOVJZ6B6GiX1Tb60mH--51">
          <mxGeometry y="118.88888888888889" width="266" height="37" as="geometry" />
        </mxCell>
        <mxCell id="IPOVJZ6B6GiX1Tb60mH--56" value="uses" style="curved=1;dashed=1;startArrow=none;endArrow=open;endSize=12;exitX=0.5;exitY=1;entryX=0.5;entryY=0;rounded=0;" edge="1" parent="1" source="IPOVJZ6B6GiX1Tb60mH--1" target="IPOVJZ6B6GiX1Tb60mH--26">
          <mxGeometry relative="1" as="geometry">
            <Array as="points" />
          </mxGeometry>
        </mxCell>
        <mxCell id="IPOVJZ6B6GiX1Tb60mH--57" value="uses" style="curved=1;dashed=1;startArrow=none;endArrow=open;endSize=12;exitX=0.5;exitY=1;entryX=0.5;entryY=0;rounded=0;" edge="1" parent="1" source="IPOVJZ6B6GiX1Tb60mH--5" target="IPOVJZ6B6GiX1Tb60mH--31">
          <mxGeometry relative="1" as="geometry">
            <Array as="points" />
          </mxGeometry>
        </mxCell>
        <mxCell id="IPOVJZ6B6GiX1Tb60mH--58" value="uses" style="curved=1;dashed=1;startArrow=none;endArrow=open;endSize=12;exitX=0.5;exitY=1;entryX=0.5;entryY=0;rounded=0;" edge="1" parent="1" source="IPOVJZ6B6GiX1Tb60mH--9" target="IPOVJZ6B6GiX1Tb60mH--36">
          <mxGeometry relative="1" as="geometry">
            <Array as="points" />
          </mxGeometry>
        </mxCell>
        <mxCell id="IPOVJZ6B6GiX1Tb60mH--59" value="uses" style="curved=1;dashed=1;startArrow=none;endArrow=open;endSize=12;exitX=0.5;exitY=1;entryX=0.5;entryY=0;rounded=0;" edge="1" parent="1" source="IPOVJZ6B6GiX1Tb60mH--13" target="IPOVJZ6B6GiX1Tb60mH--40">
          <mxGeometry relative="1" as="geometry">
            <Array as="points" />
          </mxGeometry>
        </mxCell>
        <mxCell id="IPOVJZ6B6GiX1Tb60mH--60" value="uses" style="curved=1;dashed=1;startArrow=none;endArrow=open;endSize=12;exitX=0.5;exitY=1;entryX=0.5;entryY=0;rounded=0;" edge="1" parent="1" source="IPOVJZ6B6GiX1Tb60mH--16" target="IPOVJZ6B6GiX1Tb60mH--43">
          <mxGeometry relative="1" as="geometry">
            <Array as="points" />
          </mxGeometry>
        </mxCell>
        <mxCell id="IPOVJZ6B6GiX1Tb60mH--61" value="uses" style="curved=1;dashed=1;startArrow=none;endArrow=open;endSize=12;exitX=0.5;exitY=1;entryX=0.5;entryY=0;rounded=0;" edge="1" parent="1" source="IPOVJZ6B6GiX1Tb60mH--19" target="IPOVJZ6B6GiX1Tb60mH--47">
          <mxGeometry relative="1" as="geometry">
            <Array as="points" />
          </mxGeometry>
        </mxCell>
        <mxCell id="IPOVJZ6B6GiX1Tb60mH--62" value="uses" style="curved=1;dashed=1;startArrow=none;endArrow=open;endSize=12;exitX=0.5;exitY=1;entryX=0.5;entryY=0;rounded=0;" edge="1" parent="1" source="IPOVJZ6B6GiX1Tb60mH--22" target="IPOVJZ6B6GiX1Tb60mH--51">
          <mxGeometry relative="1" as="geometry">
            <Array as="points" />
          </mxGeometry>
        </mxCell>
      </root>
    </mxGraphModel>
  </diagram>
</mxfile>
